<svg xmlns="http://www.w3.org/2000/svg" xmlns:xlink="http://www.w3.org/1999/xlink" xmlns:svgjs="http://svgjs.dev/svgjs" version="1.1" viewBox="375 0 1250 1250"><g transform="matrix(1,0,0,1,0,0)"><svg xmlns="http://www.w3.org/2000/svg" xmlns:xlink="http://www.w3.org/1999/xlink" viewBox="0 0 512 320" data-background-color="#ffffff" preserveAspectRatio="xMidYMid meet" height="1250" width="2000"><g id="tight-bounds" transform="matrix(1,0,0,1,0,0)"><svg viewBox="0 0 512 320" height="320" width="512"><g><svg/></g><g><svg viewBox="0 0 512 320" height="320" width="512"><g><path transform="translate(256,160) scale(160,160)" d="M-1 0c0-0.552 0.448-1 1-1 0.552 0 1 0.448 1 1 0 0.552-0.448 1-1 1-0.552 0-1-0.448-1-1z" fill="#ffffff" fill-rule="nonzero" stroke="none" stroke-width="1" stroke-linecap="butt" stroke-linejoin="miter" stroke-miterlimit="10" stroke-dasharray="" stroke-dashoffset="0" font-family="none" font-weight="none" font-size="none" text-anchor="none" style="mix-blend-mode: normal" data-fill-palette-color="tertiary"/></g><g transform="matrix(1,0,0,1,116,20)"><svg viewBox="0 0 280 280" height="280" width="280"><g><svg viewBox="0 0 280 280" height="280" width="280"><g><svg viewBox="0 0 280 280" height="280" width="280"><g id="textblocktransform"><svg viewBox="0 0 280 280" height="280" width="280" id="textblock"><g><svg viewBox="0 0 280 280" height="280" width="280"><g transform="matrix(1,0,0,1,96.3474246068744,90.50252531694167)"><svg viewBox="0 0 87.30515078625119 98.99494936611666" height="98.99494936611666" width="87.30515078625119"><g><svg xmlns="http://www.w3.org/2000/svg" xmlns:xlink="http://www.w3.org/1999/xlink" version="1.1" x="0" y="0" viewBox="5.913 0 88.17300000000002 99.97899999999998" enable-background="new 0 0 100 100" xml:space="preserve" height="98.99494936611666" width="87.30515078625119" class="icon-kg-0" data-fill-palette-color="quaternary" id="kg-0"><g fill="#ffffff" data-fill-palette-color="quaternary"><path fill-rule="evenodd" clip-rule="evenodd" d="M5.913 5.835v58.376c0.874 0.021 1.472 0.674 1.472 1.606 0 0.897-0.566 1.565-1.472 1.601v16.328c3.223 0 5.835 2.612 5.835 5.836h30.397c0-3.224 2.612-5.836 5.835-5.836V67.383c-0.753-0.122-1.264-0.735-1.264-1.564 0-0.843 0.521-1.435 1.264-1.562V5.835c-3.223 0-5.835-2.614-5.835-5.835H11.749C11.749 3.222 9.136 5.835 5.913 5.835zM44.466 65.818c0 0.922-0.588 1.613-1.535 1.613-0.896 0-1.512-0.691-1.512-1.613 0-0.947 0.641-1.614 1.537-1.614S44.466 64.871 44.466 65.818zM39.169 65.818c0 0.922-0.589 1.613-1.536 1.613-0.896 0-1.511-0.691-1.511-1.613 0-0.947 0.641-1.614 1.536-1.614C38.555 64.204 39.169 64.871 39.169 65.818zM33.872 65.818c0 0.922-0.589 1.613-1.536 1.613-0.897 0-1.509-0.691-1.509-1.613 0-0.947 0.639-1.614 1.535-1.614C33.257 64.204 33.872 64.871 33.872 65.818zM28.574 65.818c0 0.922-0.589 1.613-1.536 1.613-0.896 0-1.511-0.691-1.511-1.613 0-0.947 0.639-1.614 1.536-1.614C27.96 64.204 28.574 64.871 28.574 65.818zM23.277 65.818c0 0.922-0.589 1.613-1.536 1.613-0.896 0-1.509-0.691-1.509-1.613 0-0.947 0.64-1.614 1.535-1.614C22.664 64.204 23.277 64.871 23.277 65.818zM17.979 65.818c0 0.922-0.587 1.613-1.535 1.613-0.898 0-1.511-0.691-1.511-1.613 0-0.947 0.64-1.614 1.536-1.614C17.365 64.204 17.979 64.871 17.979 65.818zM12.683 65.818c0 0.922-0.589 1.613-1.537 1.613-0.896 0-1.509-0.691-1.509-1.613 0-0.947 0.639-1.614 1.535-1.614C12.068 64.204 12.683 64.871 12.683 65.818zM36.7 9.803v18.193h-1.399V9.803H36.7zM33.944 9.803v18.193h-1.442V9.803H33.944zM31.146 9.803v18.193h-4.199V9.803H31.146zM25.504 9.803v18.193h-1.356V9.803H25.504zM22.749 9.803v18.193h-2.799V9.803H22.749zM18.506 9.803v18.193H17.15V9.803H18.506z" fill="#000000" data-fill-palette-color="quaternary"/><path fill-rule="evenodd" clip-rule="evenodd" d="M91.371 19.312L64 6.092c-1.402 2.9-4.891 4.118-7.793 2.716l-4.104 8.498v46.951 3.475 16.016 4.122H47.98c-0.944 0-1.714 0.769-1.714 1.714v4.122h-4.121H39.42l12.989 6.273c1.402-2.902 4.892-4.119 7.794-2.717l7.116-14.735c-0.624-0.438-0.818-1.212-0.457-1.959 0.366-0.758 1.092-1.064 1.816-0.856l25.408-52.606C91.186 25.703 89.971 22.212 91.371 19.312zM55.296 74.981c-0.4 0.829-1.231 1.195-2.085 0.783-0.808-0.389-1.059-1.277-0.657-2.109 0.41-0.852 1.275-1.175 2.084-0.784C55.444 73.262 55.708 74.128 55.296 74.981zM72.122 20.902l-7.911 16.382-1.221-0.59 7.911-16.382L72.122 20.902zM64.6 17.269l1.222 0.59-7.913 16.382-1.221-0.589L64.6 17.269zM60.064 77.285c-0.399 0.831-1.231 1.195-2.084 0.785-0.808-0.391-1.06-1.28-0.658-2.11 0.412-0.853 1.277-1.175 2.085-0.785C60.215 75.563 60.478 76.434 60.064 77.285zM59.209 34.868l7.911-16.382 2.521 1.216-7.912 16.383L59.209 34.868zM64.836 79.589c-0.401 0.829-1.231 1.197-2.085 0.784-0.808-0.39-1.06-1.279-0.659-2.109 0.412-0.854 1.279-1.176 2.086-0.785C64.983 77.869 65.247 78.735 64.836 79.589zM65.51 37.912l7.912-16.382 3.78 1.825-7.911 16.383L65.51 37.912zM70.512 40.328l7.912-16.383 1.298 0.627-7.911 16.382L70.512 40.328zM74.293 42.154l-1.262-0.609 7.913-16.383 1.26 0.609L74.293 42.154z" fill="#000000" data-fill-palette-color="quaternary"/></g></svg></g></svg></g><g><path d="M7.354 99.76l-2.226 6.572-3.343-1.132 5.662-16.715 3.343 1.132-2.226 6.572 23.248 7.876-1.209 3.57z" fill="#000000" data-fill-palette-color="quaternary"/><path d="M16.097 71.026l24.683 13.379-1.797 3.315-24.682-13.38z" fill="#000000" data-fill-palette-color="quaternary"/><path d="M36.862 65.49v0c-3.425-2.865-5.302-6.02-5.629-9.464-0.328-3.444 0.88-6.826 3.621-10.145v0l1.661-2.01 2.721 2.249-1.967 2.38c-1.891 2.288-2.585 4.671-2.084 7.15 0.502 2.478 1.921 4.717 4.257 6.717v0c2.405 1.917 4.871 2.889 7.4 2.914 2.528 0.025 4.738-1.106 6.628-3.394v0l1.967-2.38 2.721 2.248-1.66 2.009c-2.742 3.319-5.835 5.142-9.28 5.47-3.444 0.328-6.896-0.92-10.356-3.744z" fill="#000000" data-fill-palette-color="quaternary"/><path d="M77.656 39.995v0l2.998 4.019-3.087 2.302-2.997-4.019c-1.807-2.422-3.612-3.736-5.417-3.941-1.804-0.205-4.204 0.792-7.199 2.994v0l7.962 10.673-3.022 2.254-16.787-22.504 3.022-2.254 6.835 9.162c1.618-1.14 2.593-1.801 2.925-1.982v0l-2.397-12.672 3.279-2.446 2.378 13.787c4.394-1.309 8.23 0.233 11.507 4.627z" fill="#000000" data-fill-palette-color="quaternary"/><path d="M103.914 29.574l1.382 3.248-14.687 6.251-8.373-19.669c-0.775-1.821-0.82-3.531-0.135-5.13v0c0.473-1.073 1.155-1.93 2.045-2.571 0.89-0.64 2.048-1.264 3.475-1.871v0l6.68-2.843 1.382 3.247-7.159 3.048c-2.706 1.152-3.578 2.86-2.615 5.123v0l1.791 4.207 8.525-3.629 1.382 3.248-8.525 3.628 3.613 8.488z" fill="#000000" data-fill-palette-color="quaternary"/><path d="M117.162 5.237l-6.845 1.137-0.578-3.481 17.408-2.893 0.579 3.482-6.845 1.137 4.023 24.214-3.719 0.618z" fill="#000000" data-fill-palette-color="quaternary"/><path d="M171.133 2.766l7.193 1.461-0.702 3.459-6.957-1.413c-2.647-0.538-4.188 0.268-4.625 2.416v0c-0.234 1.153 0.151 2.247 1.154 3.284 1.004 1.036 2.427 2.123 4.269 3.261v0c0.822 0.522 1.511 1.023 2.069 1.505 0.557 0.481 1.091 1.074 1.603 1.779 0.512 0.704 0.833 1.54 0.964 2.508 0.131 0.968 0.076 2.041-0.163 3.22v0c-0.266 1.31-0.779 2.427-1.54 3.351-0.761 0.923-1.633 1.592-2.618 2.005-0.984 0.414-1.959 0.68-2.925 0.798-0.965 0.118-1.883 0.102-2.752-0.048v0c-0.372-0.048-0.899-0.142-1.581-0.28v0l-6.131-1.245 0.702-3.459 6.014 1.221c1.782 0.362 3.312 0.284 4.59-0.234 1.278-0.518 2.064-1.497 2.357-2.938v0c0.144-0.708 0.113-1.362-0.092-1.963-0.205-0.601-0.563-1.158-1.073-1.671-0.51-0.513-1.043-0.976-1.6-1.389-0.557-0.413-1.236-0.865-2.037-1.355v0c-0.22-0.127-0.39-0.229-0.511-0.309v0c-3.795-2.408-5.33-5.394-4.605-8.957v0c0.447-2.201 1.489-3.702 3.124-4.502 1.636-0.8 3.594-0.968 5.873-0.505z" fill="#000000" data-fill-palette-color="quaternary"/><path d="M199.551 15.852l-6.297-2.915 1.483-3.203 16.014 7.414-1.482 3.203-6.297-2.915-10.313 22.274-3.421-1.584z" fill="#000000" data-fill-palette-color="quaternary"/><path d="M216.4 42.245l-6.331 8.083-2.81-2.201 10.882-13.893c1.781-2.273 4.029-3.637 6.745-4.091 2.716-0.454 5.232 0.226 7.547 2.039v0l7.231 5.663-17.312 22.104-2.968-2.325 15.135-19.325-4.262-3.338c-1.537-1.204-3.117-1.711-4.742-1.524-1.625 0.188-3.212 1.271-4.762 3.25v0l-2.102 2.684c2.152-0.319 4.322 0.379 6.511 2.094v0l2.873 2.251-2.176 2.779-2.873-2.251c-1.221-0.956-2.331-1.588-3.33-1.895-0.999-0.307-2.084-0.342-3.256-0.104z" fill="#000000" data-fill-palette-color="quaternary"/><path d="M252.061 57.222l-19.671 14.682-2.255-3.021 22.5-16.793 5.925 7.939c1.983 2.657 2.868 5.083 2.655 7.278-0.214 2.195-1.596 4.244-4.146 6.147v0l-15.107 11.275-2.255-3.022 15.525-11.587c1.457-1.088 2.181-2.32 2.17-3.697-0.01-1.377-0.559-2.794-1.646-4.251v0z" fill="#000000" data-fill-palette-color="quaternary"/><path d="M267.064 108.071v0c-4.166 1.608-7.835 1.721-11.006 0.339-3.172-1.382-5.545-4.077-7.119-8.084v0l-1.995-5.077 26.131-10.267 1.994 5.077c1.574 4.007 1.67 7.596 0.288 10.768-1.382 3.172-4.147 5.587-8.293 7.244zM251.608 97.468l0.792 2.015c1.085 2.762 2.834 4.525 5.244 5.287 2.411 0.762 5.057 0.606 7.939-0.469v0c2.842-1.174 4.887-2.861 6.135-5.061 1.247-2.199 1.328-4.68 0.242-7.443v0l-0.792-2.015z" fill="#000000" data-fill-palette-color="quaternary"/><path d="M35.617 180.508l-2.226-6.572 3.343-1.133 5.662 16.715-3.343 1.132-2.226-6.571-23.249 7.875-1.209-3.571z" fill="#000000" data-fill-palette-color="quaternary"/><path d="M48.537 201.232l-24.682 13.379-1.797-3.315 24.683-13.379z" fill="#000000" data-fill-palette-color="quaternary"/><path d="M43.664 218.731v0c3.459-2.824 6.911-4.072 10.356-3.744 3.444 0.328 6.538 2.151 9.28 5.47v0l1.66 2.009-2.721 2.249-1.967-2.381c-1.891-2.288-4.1-3.419-6.628-3.394-2.528 0.025-4.995 0.997-7.4 2.914v0c-2.336 2-3.755 4.239-4.257 6.718-0.502 2.478 0.193 4.861 2.084 7.149v0l1.967 2.381-2.721 2.248-1.66-2.01c-2.742-3.319-3.949-6.7-3.622-10.144 0.328-3.444 2.204-6.599 5.629-9.465z" fill="#000000" data-fill-palette-color="quaternary"/><path d="M72.141 257.241v0l-2.998 4.019-3.086-2.302 2.997-4.019c1.807-2.422 2.551-4.527 2.234-6.315-0.318-1.788-1.958-3.804-4.921-6.047v0l-7.962 10.673-3.022-2.254 16.786-22.505 3.022 2.255-6.834 9.162c1.554 1.226 2.465 1.972 2.733 2.239v0l11.464-5.91 3.279 2.446-12.538 6.21c2.507 3.838 2.123 7.955-1.154 12.348z" fill="#000000" data-fill-palette-color="quaternary"/><path d="M99.139 271.486l-1.382 3.248-14.688-6.252 8.372-19.67c0.775-1.821 1.976-3.038 3.604-3.653v0c1.101-0.403 2.191-0.506 3.27-0.308 1.078 0.197 2.331 0.6 3.758 1.207v0l6.679 2.843-1.382 3.248-7.159-3.048c-2.706-1.152-4.541-0.596-5.505 1.668v0l-1.791 4.207 8.525 3.628-1.382 3.248-8.525-3.629-3.613 8.488z" fill="#000000" data-fill-palette-color="quaternary"/><path d="M122.053 255.168l-6.845-1.137 0.579-3.482 17.408 2.892-0.578 3.482-6.845-1.137-4.023 24.214-3.719-0.618z" fill="#000000" data-fill-palette-color="quaternary"/><path d="M163.788 250.915l7.193-1.461 0.702 3.459-6.957 1.413c-2.647 0.538-3.752 1.881-3.315 4.029v0c0.234 1.153 1.016 2.011 2.344 2.573 1.328 0.562 3.063 1.008 5.203 1.337v0c0.96 0.16 1.791 0.352 2.492 0.579 0.701 0.226 1.424 0.563 2.17 1.012 0.746 0.449 1.368 1.093 1.866 1.933 0.498 0.84 0.867 1.85 1.106 3.029v0c0.266 1.31 0.229 2.539-0.111 3.686-0.34 1.147-0.882 2.103-1.627 2.868-0.745 0.765-1.539 1.39-2.382 1.875-0.843 0.485-1.694 0.828-2.553 1.03v0c-0.362 0.101-0.883 0.22-1.564 0.359v0l-6.132 1.246-0.702-3.459 6.013-1.222c1.782-0.362 3.16-1.031 4.136-2.006 0.975-0.976 1.316-2.184 1.023-3.626v0c-0.144-0.708-0.427-1.298-0.851-1.771-0.424-0.473-0.97-0.847-1.639-1.12-0.669-0.273-1.341-0.491-2.016-0.654-0.674-0.163-1.476-0.314-2.404-0.453v0c-0.252-0.031-0.449-0.059-0.591-0.085v0c-4.433-0.736-7.012-2.887-7.735-6.45v0c-0.447-2.201-0.074-3.989 1.12-5.364 1.194-1.375 2.931-2.294 5.211-2.757z" fill="#000000" data-fill-palette-color="quaternary"/><path d="M187.014 246.911l-6.297 2.915-1.483-3.203 16.015-7.414 1.483 3.203-6.297 2.915 10.313 22.275-3.422 1.584z" fill="#000000" data-fill-palette-color="quaternary"/><path d="M215.609 246.587l6.331 8.083-2.81 2.201-10.882-13.893c-1.781-2.273-2.566-4.783-2.356-7.529 0.21-2.746 1.473-5.025 3.789-6.839v0l7.23-5.663 17.312 22.103-2.968 2.324-15.135-19.324-4.263 3.339c-1.537 1.204-2.408 2.617-2.615 4.238-0.207 1.622 0.465 3.423 2.014 5.402v0l2.102 2.684c0.206-2.165 1.404-4.105 3.593-5.82v0l2.874-2.25 2.176 2.778-2.873 2.251c-1.221 0.956-2.1 1.883-2.638 2.779-0.538 0.896-0.831 1.942-0.881 3.136z" fill="#000000" data-fill-palette-color="quaternary"/><path d="M228.148 214.771l19.671 14.682-2.255 3.021-22.5-16.793 5.925-7.939c1.983-2.657 4.057-4.195 6.222-4.615 2.165-0.419 4.522 0.322 7.073 2.226v0l15.107 11.275-2.255 3.021-15.525-11.587c-1.457-1.088-2.844-1.431-4.162-1.029-1.317 0.401-2.52 1.331-3.607 2.788v0z" fill="#000000" data-fill-palette-color="quaternary"/><path d="M258.852 178.544v0c4.146 1.658 6.911 4.073 8.293 7.244 1.382 3.172 1.286 6.761-0.288 10.768v0l-1.995 5.077-26.131-10.268 1.995-5.076c1.574-4.007 3.947-6.701 7.119-8.084 3.172-1.382 6.841-1.269 11.007 0.339zM262.956 196.833l0.792-2.016c1.085-2.762 1.004-5.243-0.243-7.442-1.247-2.199-3.292-3.886-6.135-5.061v0c-2.881-1.075-5.528-1.231-7.938-0.469-2.411 0.762-4.159 2.524-5.245 5.286v0l-0.792 2.016z" fill="#000000" data-fill-palette-color="quaternary"/><path d="M4.08 144.921c0-5.923 4.802-10.725 10.725-10.725 5.923 0 10.725 4.802 10.725 10.725 0 5.923-4.802 10.725-10.725 10.725-5.923 0-10.725-4.802-10.725-10.725z" fill="#000000" data-fill-palette-color="quaternary"/><path d="M256.765 144.921c0-5.923 4.802-10.725 10.725-10.725 5.923 0 10.725 4.802 10.725 10.725 0 5.923-4.802 10.725-10.725 10.725-5.923 0-10.725-4.802-10.725-10.725z" fill="#000000" data-fill-palette-color="quaternary"/></g></svg></g></svg></g></svg></g></svg></g></svg></g></svg></g><defs/></svg><rect width="512" height="320" fill="none" stroke="none" visibility="hidden"/></g></svg></g></svg>