<svg xmlns="http://www.w3.org/2000/svg" version="1.1" xmlns:xlink="http://www.w3.org/1999/xlink" xmlns:svgjs="http://svgjs.dev/svgjs" width="2000" height="757" viewBox="0 0 2000 757"><g transform="matrix(1,0,0,1,-1.2121212121212466,0.343015482418366)"><svg viewBox="0 0 396 150" data-background-color="#ffffff" preserveAspectRatio="xMidYMid meet" height="757" width="2000" xmlns="http://www.w3.org/2000/svg" xmlns:xlink="http://www.w3.org/1999/xlink"><g id="tight-bounds" transform="matrix(1,0,0,1,0.2400000000000091,-0.06796872174736279)"><svg viewBox="0 0 395.52 150.13593744349473" height="150.13593744349473" width="395.52"><g><svg viewBox="0 0 625.8603008164309 237.57110379182458" height="150.13593744349473" width="395.52"><g transform="matrix(1,0,0,1,230.34030081643095,23.283419804006613)"><svg viewBox="0 0 395.52 191.00426418381136" height="191.00426418381136" width="395.52"><g id="textblocktransform"><svg viewBox="0 0 395.52 191.00426418381136" height="191.00426418381136" width="395.52" id="textblock"><g><svg viewBox="0 0 395.52 191.00426418381136" height="191.00426418381136" width="395.52"><g transform="matrix(1,0,0,1,0,0)"><svg width="395.52" viewBox="75.35 -35.49999999999999 162.57 74.75" height="191.00426418381136" data-palette-color="#00784a"><svg></svg><svg></svg><g class="wordmark-text-0" data-fill-palette-color="primary" id="text-0"><path transform="translate(74.91,0)" d="M17.94-28v28h-6.98v-28h-10.52v-7.01h28v7.01zM39.16-35.01v35.01h-7.01v-35.01zM69.9-9.69l3.71 6.1c-1.627 1.4-3.45 2.473-5.47 3.22-2.02 0.753-4.11 1.13-6.27 1.13v0c-1.66 0-3.26-0.217-4.8-0.65-1.54-0.433-2.98-1.043-4.32-1.83-1.347-0.793-2.573-1.743-3.68-2.85-1.107-1.107-2.053-2.33-2.84-3.67-0.793-1.34-1.403-2.78-1.83-4.32-0.433-1.54-0.65-3.14-0.65-4.8v0c0-1.66 0.217-3.263 0.65-4.81 0.427-1.547 1.037-2.99 1.83-4.33 0.787-1.347 1.733-2.573 2.84-3.68 1.107-1.107 2.333-2.053 3.68-2.84 1.34-0.787 2.78-1.397 4.32-1.83 1.54-0.433 3.14-0.65 4.8-0.65v0c2.16 0 4.25 0.37 6.27 1.11 2.02 0.74 3.843 1.82 5.47 3.24v0l-3.71 6.1c-1.027-1.107-2.24-1.957-3.64-2.55-1.4-0.593-2.863-0.89-4.39-0.89v0c-1.547 0-2.997 0.293-4.35 0.88-1.353 0.587-2.533 1.38-3.54 2.38-1.007 1-1.803 2.18-2.39 3.54-0.587 1.36-0.88 2.803-0.88 4.33v0c0 1.533 0.293 2.97 0.88 4.31 0.587 1.34 1.383 2.517 2.39 3.53 1.007 1.007 2.187 1.803 3.54 2.39 1.353 0.587 2.803 0.88 4.35 0.88v0c1.527 0 2.99-0.297 4.39-0.89 1.4-0.593 2.613-1.443 3.64-2.55zM84.67-7.01v7.01h-7.01v-35.01h7.01v17.51l13.04-17.51h7.95l-11.06 14.77 11.06 20.24h-7.95l-7.7-14.16zM132.91-7.01v7.01h-24v-35.01h24v7.01h-16.99v7h11.5v7.01h-11.5v6.98zM152.51-28v28h-6.98v-28h-10.52v-7.01h28v7.01z" fill="#000000" fill-rule="nonzero" stroke="none" stroke-width="1" stroke-linecap="butt" stroke-linejoin="miter" stroke-miterlimit="10" stroke-dasharray="" stroke-dashoffset="0" font-family="none" font-weight="none" font-size="none" text-anchor="none" style="mix-blend-mode: normal" data-fill-palette-color="primary" opacity="1"></path><path transform="translate(78.1,39.25)" d="M1.2-24.51v0c0-1.447 0.277-2.807 0.83-4.08 0.553-1.267 1.303-2.377 2.25-3.33 0.953-0.953 2.067-1.707 3.34-2.26 1.267-0.553 2.623-0.83 4.07-0.83v0h16.07v7.01h-16.07c-0.487 0-0.94 0.09-1.36 0.27-0.427 0.173-0.797 0.42-1.11 0.74-0.32 0.32-0.57 0.69-0.75 1.11-0.18 0.427-0.27 0.883-0.27 1.37v0c0 0.487 0.09 0.947 0.27 1.38 0.18 0.427 0.43 0.8 0.75 1.12 0.313 0.32 0.683 0.57 1.11 0.75 0.42 0.173 0.873 0.26 1.36 0.26v0h7.01c1.447 0 2.81 0.273 4.09 0.82 1.28 0.547 2.397 1.297 3.35 2.25 0.947 0.953 1.693 2.067 2.24 3.34 0.547 1.28 0.82 2.643 0.82 4.09v0c0 1.447-0.273 2.807-0.82 4.08-0.547 1.267-1.293 2.377-2.24 3.33-0.953 0.953-2.07 1.707-3.35 2.26-1.28 0.553-2.643 0.83-4.09 0.83v0h-15.55v-7.01h15.55c0.487 0 0.943-0.09 1.37-0.27 0.42-0.173 0.79-0.42 1.11-0.74 0.32-0.32 0.567-0.69 0.74-1.11 0.18-0.427 0.27-0.883 0.27-1.37v0c0-0.487-0.09-0.943-0.27-1.37-0.173-0.42-0.42-0.79-0.74-1.11-0.32-0.313-0.69-0.56-1.11-0.74-0.427-0.18-0.883-0.27-1.37-0.27v0h-7.01c-1.447 0-2.803-0.277-4.07-0.83-1.273-0.553-2.387-1.307-3.34-2.26-0.947-0.953-1.697-2.067-2.25-3.34-0.553-1.28-0.83-2.643-0.83-4.09zM48-28v28h-6.98v-28h-10.53v-7.01h28.01v7.01zM67.75-13.99h14.01v-7.01c0-0.96-0.183-1.867-0.55-2.72-0.367-0.853-0.867-1.597-1.5-2.23-0.633-0.633-1.377-1.133-2.23-1.5-0.853-0.367-1.76-0.55-2.72-0.55v0c-0.96 0-1.87 0.183-2.73 0.55-0.853 0.367-1.597 0.867-2.23 1.5-0.633 0.633-1.133 1.377-1.5 2.23-0.367 0.853-0.55 1.76-0.55 2.72v0zM88.77-21v21h-7.01v-7.01h-14.01v7.01h-6.98v-21c0-1.933 0.367-3.75 1.1-5.45 0.727-1.7 1.723-3.187 2.99-4.46 1.26-1.267 2.74-2.267 4.44-3 1.7-0.733 3.52-1.1 5.46-1.1v0c1.933 0 3.75 0.367 5.45 1.1 1.7 0.733 3.187 1.733 4.46 3 1.267 1.273 2.267 2.76 3 4.46 0.733 1.7 1.1 3.517 1.1 5.45zM122.85-35.01v35.01h-7.49l-13.5-23.05v23.05h-7.01v-35.01h7.49l13.5 23.07v-23.07zM157.4-17.5v0c0 1.607-0.21 3.157-0.63 4.65-0.413 1.487-1.003 2.877-1.77 4.17-0.76 1.293-1.67 2.473-2.73 3.54-1.06 1.067-2.24 1.983-3.54 2.75-1.3 0.76-2.697 1.35-4.19 1.77-1.487 0.413-3.037 0.62-4.65 0.62v0h-10.54v-35.01h10.54c1.613 0 3.163 0.207 4.65 0.62 1.493 0.42 2.89 1.01 4.19 1.77 1.3 0.767 2.48 1.683 3.54 2.75 1.06 1.067 1.97 2.247 2.73 3.54 0.767 1.293 1.357 2.683 1.77 4.17 0.42 1.493 0.63 3.047 0.63 4.66zM150.39-17.5v0c0-1.453-0.273-2.813-0.82-4.08-0.547-1.273-1.293-2.383-2.24-3.33-0.953-0.953-2.07-1.707-3.35-2.26-1.273-0.553-2.637-0.83-4.09-0.83v0h-3.49v20.99h3.49c1.453 0 2.817-0.27 4.09-0.81 1.28-0.547 2.397-1.297 3.35-2.25 0.947-0.953 1.693-2.07 2.24-3.35 0.547-1.273 0.82-2.633 0.82-4.08z" fill="#000000" fill-rule="nonzero" stroke="none" stroke-width="1" stroke-linecap="butt" stroke-linejoin="miter" stroke-miterlimit="10" stroke-dasharray="" stroke-dashoffset="0" font-family="none" font-weight="none" font-size="none" text-anchor="none" style="mix-blend-mode: normal" data-fill-palette-color="primary" opacity="1"></path></g></svg></g></svg></g></svg></g></svg></g><g><svg viewBox="0 0 209.51756803565306 237.57110379182458" height="237.57110379182458" width="209.51756803565306"><g><svg xmlns="http://www.w3.org/2000/svg" xmlns:xlink="http://www.w3.org/1999/xlink" version="1.1" x="0" y="0" viewBox="5.913 0 88.17300000000002 99.97899999999998" enable-background="new 0 0 100 100" xml:space="preserve" height="237.57110379182458" width="209.51756803565306" class="icon-icon-0" data-fill-palette-color="accent" id="icon-0"><g fill="#00784a" data-fill-palette-color="accent"><path fill-rule="evenodd" clip-rule="evenodd" d="M5.913 5.835v58.376c0.874 0.021 1.472 0.674 1.472 1.606 0 0.897-0.566 1.565-1.472 1.601v16.328c3.223 0 5.835 2.612 5.835 5.836h30.397c0-3.224 2.612-5.836 5.835-5.836V67.383c-0.753-0.122-1.264-0.735-1.264-1.564 0-0.843 0.521-1.435 1.264-1.562V5.835c-3.223 0-5.835-2.614-5.835-5.835H11.749C11.749 3.222 9.136 5.835 5.913 5.835zM44.466 65.818c0 0.922-0.588 1.613-1.535 1.613-0.896 0-1.512-0.691-1.512-1.613 0-0.947 0.641-1.614 1.537-1.614S44.466 64.871 44.466 65.818zM39.169 65.818c0 0.922-0.589 1.613-1.536 1.613-0.896 0-1.511-0.691-1.511-1.613 0-0.947 0.641-1.614 1.536-1.614C38.555 64.204 39.169 64.871 39.169 65.818zM33.872 65.818c0 0.922-0.589 1.613-1.536 1.613-0.897 0-1.509-0.691-1.509-1.613 0-0.947 0.639-1.614 1.535-1.614C33.257 64.204 33.872 64.871 33.872 65.818zM28.574 65.818c0 0.922-0.589 1.613-1.536 1.613-0.896 0-1.511-0.691-1.511-1.613 0-0.947 0.639-1.614 1.536-1.614C27.96 64.204 28.574 64.871 28.574 65.818zM23.277 65.818c0 0.922-0.589 1.613-1.536 1.613-0.896 0-1.509-0.691-1.509-1.613 0-0.947 0.64-1.614 1.535-1.614C22.664 64.204 23.277 64.871 23.277 65.818zM17.979 65.818c0 0.922-0.587 1.613-1.535 1.613-0.898 0-1.511-0.691-1.511-1.613 0-0.947 0.64-1.614 1.536-1.614C17.365 64.204 17.979 64.871 17.979 65.818zM12.683 65.818c0 0.922-0.589 1.613-1.537 1.613-0.896 0-1.509-0.691-1.509-1.613 0-0.947 0.639-1.614 1.535-1.614C12.068 64.204 12.683 64.871 12.683 65.818zM36.7 9.803v18.193h-1.399V9.803H36.7zM33.944 9.803v18.193h-1.442V9.803H33.944zM31.146 9.803v18.193h-4.199V9.803H31.146zM25.504 9.803v18.193h-1.356V9.803H25.504zM22.749 9.803v18.193h-2.799V9.803H22.749zM18.506 9.803v18.193H17.15V9.803H18.506z" fill="#000000" data-fill-palette-color="accent"></path><path fill-rule="evenodd" clip-rule="evenodd" d="M91.371 19.312L64 6.092c-1.402 2.9-4.891 4.118-7.793 2.716l-4.104 8.498v46.951 3.475 16.016 4.122H47.98c-0.944 0-1.714 0.769-1.714 1.714v4.122h-4.121H39.42l12.989 6.273c1.402-2.902 4.892-4.119 7.794-2.717l7.116-14.735c-0.624-0.438-0.818-1.212-0.457-1.959 0.366-0.758 1.092-1.064 1.816-0.856l25.408-52.606C91.186 25.703 89.971 22.212 91.371 19.312zM55.296 74.981c-0.4 0.829-1.231 1.195-2.085 0.783-0.808-0.389-1.059-1.277-0.657-2.109 0.41-0.852 1.275-1.175 2.084-0.784C55.444 73.262 55.708 74.128 55.296 74.981zM72.122 20.902l-7.911 16.382-1.221-0.59 7.911-16.382L72.122 20.902zM64.6 17.269l1.222 0.59-7.913 16.382-1.221-0.589L64.6 17.269zM60.064 77.285c-0.399 0.831-1.231 1.195-2.084 0.785-0.808-0.391-1.06-1.28-0.658-2.11 0.412-0.853 1.277-1.175 2.085-0.785C60.215 75.563 60.478 76.434 60.064 77.285zM59.209 34.868l7.911-16.382 2.521 1.216-7.912 16.383L59.209 34.868zM64.836 79.589c-0.401 0.829-1.231 1.197-2.085 0.784-0.808-0.39-1.06-1.279-0.659-2.109 0.412-0.854 1.279-1.176 2.086-0.785C64.983 77.869 65.247 78.735 64.836 79.589zM65.51 37.912l7.912-16.382 3.78 1.825-7.911 16.383L65.51 37.912zM70.512 40.328l7.912-16.383 1.298 0.627-7.911 16.382L70.512 40.328zM74.293 42.154l-1.262-0.609 7.913-16.383 1.26 0.609L74.293 42.154z" fill="#000000" data-fill-palette-color="accent"></path></g></svg></g></svg></g></svg></g><defs></defs></svg><rect width="395.52" height="150.13593744349473" fill="none" stroke="none" visibility="hidden"></rect></g></svg></g></svg>